<svg xmlns="http://www.w3.org/2000/svg" version="1.1" xmlns:xlink="http://www.w3.org/1999/xlink" xmlns:svgjs="http://svgjs.dev/svgjs" width="100%" height="100%" viewBox="0 0 1000 600"><rect width="1000" height="600" x="0" y="0" fill="#358597"/><g><circle r="166.66666666666666" cx="421.26928202311194" cy="443.4914523144123" fill="#b0acac" transform="matrix(0.4909612653569324,0,0,0.4909612653569323,0,82.26286713939801)"/><path d="M320.5063883551596 368.4914574990165L388.9336198318452 368.4914574990165L388.9336198318452 477.7344175280476Q388.9336198318452 487.03606091488695 385.88197657559505 494.6358263318945Q382.83033331934496 502.235591748902 377.22587310834706 507.51728200010416Q371.6214128973493 512.7989722513064 363.8162484150172 515.6452164422319Q355.9817412090673 518.4914606331574 346.680097822228 518.4914606331574L346.680097822228 518.4914606331574Q329.5732899530566 518.4914606331574 319.12728034512344 509.3071881407893Q308.6519280135725 500.12291564842116 305.71765565179356 484.92338481440606L305.71765565179356 484.92338481440606L321.7681254707245 481.1088307440934Q323.8808015712054 490.61587319625727 329.7786890183811 496.6311315379042Q335.70591918917467 502.64638987955107 347.12023867649486 502.64638987955107L347.12023867649486 502.64638987955107Q358.53455816381506 502.64638987955107 364.87258646525765 495.69216438213493Q371.2106147667002 488.70859616110096 371.2106147667002 474.5654033773263L371.2106147667002 474.5654033773263L371.2106147667002 384.1311291872984L320.5063883551596 384.1311291872984L320.5063883551596 368.4914574990165ZM536.8209468655053 515.9679864020277L518.2470028154445 515.9679864020277L503.4582701120784 472.45272727684545L443.8631984443475 472.45272727684545L429.0744657409815 515.9679864020277L411.1167188868942 515.9679864020277L462.6718842833507 368.4914574990165L485.29512419266655 368.4914574990165L536.8209468655053 515.9679864020277ZM499.0275188457922 456.81305558856354L474.0862037706709 384.9820681722143L473.0298657204305 384.9820681722143L448.0885506453093 456.81305558856354L499.0275188457922 456.81305558856354Z " fill="#ffffff" transform="matrix(0.4909612653569324,0,0,0.4909612653569323,0,82.26286713939801)"/><path d="M682.4395117252714 375.18472209980314L734.1239086553419 375.18472209980314L734.1239086553419 457.698019600083Q734.1239086553419 464.7237287882615 731.8189441267282 470.46397698932856Q729.5139795981144 476.20422519039556 725.2808235888333 480.1935868745348Q721.0476675795522 484.182948558674 715.1522775352132 486.3327712440157Q709.2347243704066 488.4825939293574 702.2090151822281 488.4825939293574L702.2090151822281 488.4825939293574Q689.2879159497104 488.4825939293574 681.3978450633017 481.5455372230486Q673.4856110564256 474.60848051673986 671.2692990096816 463.1279841146058L671.2692990096816 463.1279841146058L683.3925259053714 460.2467784538386Q684.988270579027 467.42762948528923 689.4430577929825 471.97106918111444Q693.9200081274055 476.5145088769397 702.5414619892397 476.5145088769397L702.5414619892397 476.5145088769397Q711.1629158510739 476.5145088769397 715.950149872041 471.2618493261564Q720.7373838930081 465.9870266549056 720.7373838930081 455.3044025895994L720.7373838930081 455.3044025895994L720.7373838930081 386.99766530894874L682.4395117252714 386.99766530894874L682.4395117252714 375.18472209980314ZM792.7010360507863 488.4825939293574L792.7010360507863 488.4825939293574Q784.2347240322242 488.4825939293574 777.4528091691875 485.4684095457855Q770.6708943061508 482.43206204174624 765.8171709237814 476.75830320208155Q760.9412844209446 471.10670748288425 758.3038730853192 463.1944734760081Q755.6664617496938 455.3044025895994 755.6664617496938 445.3974877406537L755.6664617496938 445.3974877406537Q755.6664617496938 435.66787785544744 758.3038730853192 427.68915448716893Q760.9412844209446 419.7104311188905 765.8171709237814 414.05883539969324Q770.6708943061508 408.38507656002855 777.4528091691875 405.3487290559892Q784.2347240322242 402.3123815519499 792.7010360507863 402.3123815519499L792.7010360507863 402.3123815519499Q800.9900431056091 402.3123815519499 807.528163643504 405.3487290559892Q814.0884473018662 408.38507656002855 818.6983763590937 413.72638859268164Q823.3304685367888 419.06770062533474 825.812738029142 426.4258566205249Q828.2728444010279 433.76184949524753 828.2728444010279 442.53844520035386L828.2728444010279 442.53844520035386L828.2728444010279 448.588977087965L769.0751496324951 448.588977087965L769.0751496324951 452.4231969288322Q769.0751496324951 457.698019600083 770.7595467880205 462.2414592959082Q772.4217808230786 466.7848989917334 775.5467808089877 470.1315301823169Q778.6496176744294 473.5003244933678 783.1930573702546 475.4063528535677Q787.7586601865472 477.31238121376754 793.4989083876143 477.31238121376754L793.4989083876143 477.31238121376754Q801.3224899126207 477.31238121376754 807.1292274750899 473.6554663366399Q812.9581281580267 469.97638833904483 816.1496175053381 463.1279841146058L816.1496175053381 463.1279841146058L825.258660017456 469.6661046525007Q821.2692983333168 478.11025355059536 812.8029863147547 483.29642373997643Q804.3366742961924 488.4825939293574 792.7010360507863 488.4825939293574ZM792.7010360507863 413.0171687377236L792.7010360507863 413.0171687377236Q787.4262133795356 413.0171687377236 783.1265680088522 414.85670773652106Q778.8047595177014 416.67408361485116 775.7019226522598 420.0428779259021Q772.5990857868181 423.38950911648556 770.8260361494229 427.93294881231077Q769.0751496324951 432.47638850813604 769.0751496324951 437.9063530226589L769.0751496324951 437.9063530226589L769.0751496324951 439.0145090460309L814.5538728316824 439.0145090460309L814.5538728316824 437.2636225291031Q814.5538728316824 426.2485516567853 808.5698303054736 419.64394175748816Q802.5857877792647 413.0171687377236 792.7010360507863 413.0171687377236ZM849.3499719655636 507.32124632668155L849.3499719655636 404.24057303261725L862.115929354809 404.24057303261725L862.115929354809 499.3425229584031Q862.115929354809 507.96397682023735 857.7941208636582 513.2166363710207Q853.4944754929749 518.4914590422713 844.2302911375849 518.4914590422713L844.2302911375849 518.4914590422713L835.9412840827622 518.4914590422713L835.9412840827622 507.32124632668155L849.3499719655636 507.32124632668155ZM855.7329506601862 384.9364951054768L855.7329506601862 384.9364951054768Q851.588447132775 384.9364951054768 849.7489081339775 382.9418142634072Q847.9093691351799 380.9471334213376 847.9093691351799 377.7556440740262L847.9093691351799 377.7556440740262L847.9093691351799 375.6723107500868Q847.9093691351799 372.4808214027754 849.7489081339775 370.4861405607058Q851.588447132775 368.4914597186362 855.7329506601862 368.4914597186362L855.7329506601862 368.4914597186362Q859.8774541875977 368.4914597186362 861.7169931863951 370.4861405607058Q863.5565321851926 372.4808214027754 863.5565321851926 375.6723107500868L863.5565321851926 375.6723107500868L863.5565321851926 377.7556440740262Q863.5565321851926 380.9471334213376 861.7169931863951 382.9418142634072Q859.8774541875977 384.9364951054768 855.7329506601862 384.9364951054768ZM956.2648651004951 486.57656556915754L949.0840140690444 486.57656556915754Q941.9031630375938 486.57656556915754 938.7781630516847 482.7423457282904Q935.6753261862431 478.90812588742324 934.8774538494152 473.16787768635623L934.8774538494152 473.16787768635623L934.0795815125874 473.16787768635623Q931.3756808155597 480.83631736809053 925.147843964209 484.6705372089577Q918.9200071128583 488.4825939293574 910.298553251024 488.4825939293574L910.298553251024 488.4825939293574Q897.2223121752344 488.4825939293574 889.952808661914 481.7893315481905Q882.705468269061 475.09606916702353 882.705468269061 463.5934096444221L882.705468269061 463.5934096444221Q882.705468269061 451.95777139901594 891.2382696490255 445.72993454766527Q899.7710710289899 439.5020976963146 917.8118510894863 439.5020976963146L917.8118510894863 439.5020976963146L934.0795815125874 439.5020976963146L934.0795815125874 431.368232484764Q934.0795815125874 422.5916367796577 929.2923474916203 417.9595446019627Q924.5051134706532 413.32745242426773 914.6203617421749 413.32745242426773L914.6203617421749 413.32745242426773Q907.1070639037126 413.32745242426773 902.0760355576037 416.67408361485116Q897.0671703319623 420.0428779259021 893.6983760209114 425.627984283697L893.6983760209114 425.627984283697L886.0520994596445 418.4471332522464Q889.398730650228 411.731707750612 896.7347235249507 407.0331262115147Q904.0707163996734 402.3123815519499 915.2409291152632 402.3123815519499L915.2409291152632 402.3123815519499Q930.2453616717202 402.3123815519499 938.5565318470103 409.67053754714004Q946.8455389018329 417.0065304218628 946.8455389018329 430.0827714976525L946.8455389018329 430.0827714976525L946.8455389018329 475.4063528535677L956.2648651004951 475.4063528535677L956.2648651004951 486.57656556915754ZM912.3818865749635 477.64482802077913L912.3818865749635 477.64482802077913Q917.1691205959305 477.64482802077913 921.1584822800697 476.5145088769397Q925.147843964209 475.4063528535677 928.0068865045088 473.3230195296283Q930.8880921652759 471.2618493261564 932.4838368389317 468.53578550866126Q934.0795815125874 465.83188481163353 934.0795815125874 462.6403954643221L934.0795815125874 462.6403954643221L934.0795815125874 449.07656573824875L917.1691205959305 449.07656573824875Q906.1540497236127 449.07656573824875 901.1230213775038 452.2680550855601Q896.0919930313948 455.4595444328715 896.0919930313948 461.53223944095015L896.0919930313948 461.53223944095015L896.0919930313948 464.87887063153363Q896.0919930313948 470.9294025191448 900.480290883948 474.29819683019565Q904.8685887365012 477.64482802077913 912.3818865749635 477.64482802077913ZM974.4607870042634 486.57656556915754L974.4607870042634 368.4914597186362L987.226744393509 368.4914597186362L987.226744393509 443.33631753718174L987.8473117665973 443.33631753718174L1000.4581273125708 429.28489916082464L1023.7515669238504 404.24057303261725L1039.243588130591 404.24057303261725L1008.7692974878609 436.79819699928686L1042.2799356346304 486.57656556915754L1026.7879144278895 486.57656556915754L999.5051131324709 444.5996154038258L987.226744393509 457.2104309497993L987.226744393509 486.57656556915754L974.4607870042634 486.57656556915754ZM1146.0033394222505 486.57656556915754L1131.9519210458934 486.57656556915754L1120.7817083303034 453.7086579159438L1075.7905737813999 453.7086579159438L1064.62036106581 486.57656556915754L1051.0565313397367 486.57656556915754L1089.9749708805616 375.18472209980314L1107.0627367609582 375.18472209980314L1146.0033394222505 486.57656556915754ZM1117.4350771397203 441.8957147067981L1098.5964247423958 387.6403958025045L1097.798552405568 387.6403958025045L1078.9820631287114 441.8957147067981L1117.4350771397203 441.8957147067981ZM1215.8836582560893 486.57656556915754L1215.8836582560893 473.16787768635623L1215.2409277625338 473.16787768635623Q1207.7497930445388 488.4825939293574 1191.1496158144262 488.4825939293574L1191.1496158144262 488.4825939293574Q1183.5033392531593 488.4825939293574 1177.2755024018088 485.4684095457855Q1171.047665550458 482.43206204174624 1166.6593676979046 476.8469556839513Q1162.2710698453516 471.2618493261564 1159.9661053167379 463.28312595787787Q1157.6389776676565 455.3044025895994 1157.6389776676565 445.3974877406537L1157.6389776676565 445.3974877406537Q1157.6389776676565 435.51273601217537 1159.9661053167379 427.53401264389686Q1162.2710698453516 419.5552892756184 1166.6593676979046 413.9701829178235Q1171.047665550458 408.38507656002855 1177.2755024018088 405.3487290559892Q1183.5033392531593 402.3123815519499 1191.1496158144262 402.3123815519499L1191.1496158144262 402.3123815519499Q1199.7710696762606 402.3123815519499 1205.9102540457413 406.0801120314148Q1212.0494384152223 409.8256793904122 1215.2409277625338 417.64926091541855L1215.2409277625338 417.64926091541855L1215.8836582560893 417.64926091541855L1215.8836582560893 368.4914597186362L1228.649615645335 368.4914597186362L1228.649615645335 486.57656556915754L1215.8836582560893 486.57656556915754ZM1194.6735519687493 477.0020975272234L1194.6735519687493 477.0020975272234Q1198.9731973394328 477.0020975272234 1202.8739065417021 475.8939415038514Q1206.796778864439 474.76362236001194 1209.6558214047386 472.61379967467025Q1212.537027065506 470.46397698932856 1214.2214242210314 467.3389770034195Q1215.8836582560893 464.2361401379778 1215.8836582560893 460.2467784538386L1215.8836582560893 460.2467784538386L1215.8836582560893 429.61734596783623Q1215.8836582560893 426.2485516567853 1214.2214242210314 423.3008566346158Q1212.537027065506 420.35316161244623 1209.6558214047386 418.26982828850686Q1206.796778864439 416.2086580850349 1202.8739065417021 415.01184957979314Q1198.9731973394328 413.8150410745514 1194.6735519687493 413.8150410745514L1194.6735519687493 413.8150410745514Q1183.8136229397035 413.8150410745514 1177.585786088353 420.5969559375881Q1171.3579492370022 427.3788708006248 1171.3579492370022 438.39394167294256L1171.3579492370022 438.39394167294256L1171.3579492370022 452.4231969288322Q1171.3579492370022 463.43826780115 1177.585786088353 470.22018266418667Q1183.8136229397035 477.0020975272234 1194.6735519687493 477.0020975272234ZM1288.8224877144353 486.57656556915754L1273.9731970012501 486.57656556915754L1245.0946510321755 404.24057303261725L1257.8606084214211 404.24057303261725L1272.2223104843224 445.0872040541095L1281.1540480327008 473.16787768635623L1281.9519203695286 473.16787768635623L1290.883657917907 445.0872040541095L1305.57780678782 404.24057303261725L1317.856175526782 404.24057303261725L1288.8224877144353 486.57656556915754ZM1363.9776292195247 488.4825939293574L1363.9776292195247 488.4825939293574Q1355.5113172009628 488.4825939293574 1348.7294023379259 485.4684095457855Q1341.9474874748894 482.43206204174624 1337.09376409252 476.75830320208155Q1332.2178775896832 471.10670748288425 1329.5804662540577 463.1944734760081Q1326.9430549184322 455.3044025895994 1326.9430549184322 445.3974877406537L1326.9430549184322 445.3974877406537Q1326.9430549184322 435.66787785544744 1329.5804662540577 427.68915448716893Q1332.2178775896832 419.7104311188905 1337.09376409252 414.05883539969324Q1341.9474874748894 408.38507656002855 1348.7294023379259 405.3487290559892Q1355.5113172009628 402.3123815519499 1363.9776292195247 402.3123815519499L1363.9776292195247 402.3123815519499Q1372.2666362743475 402.3123815519499 1378.8047568122424 405.3487290559892Q1385.3650404706045 408.38507656002855 1389.9749695278324 413.72638859268164Q1394.607061705527 419.06770062533474 1397.0893311978807 426.4258566205249Q1399.5494375697663 433.76184949524753 1399.5494375697663 442.53844520035386L1399.5494375697663 442.53844520035386L1399.5494375697663 448.588977087965L1340.3517428012337 448.588977087965L1340.3517428012337 452.4231969288322Q1340.3517428012337 457.698019600083 1342.0361399567591 462.2414592959082Q1343.6983739918173 466.7848989917334 1346.823373977726 470.1315301823169Q1349.9262108431676 473.5003244933678 1354.469650538993 475.4063528535677Q1359.0352533552855 477.31238121376754 1364.7755015563525 477.31238121376754L1364.7755015563525 477.31238121376754Q1372.599083081359 477.31238121376754 1378.4058206438285 473.6554663366399Q1384.2347213267653 469.97638833904483 1387.4262106740766 463.1279841146058L1387.4262106740766 463.1279841146058L1396.5352531861945 469.6661046525007Q1392.5458915020554 478.11025355059536 1384.079579483493 483.29642373997643Q1375.6132674649311 488.4825939293574 1363.9776292195247 488.4825939293574ZM1363.9776292195247 413.0171687377236L1363.9776292195247 413.0171687377236Q1358.702806548274 413.0171687377236 1354.4031611775908 414.85670773652106Q1350.08135268644 416.67408361485116 1346.9785158209984 420.0428779259021Q1343.8756789555564 423.38950911648556 1342.1026293181612 427.93294881231077Q1340.3517428012337 432.47638850813604 1340.3517428012337 437.9063530226589L1340.3517428012337 437.9063530226589L1340.3517428012337 439.0145090460309L1385.830466000421 439.0145090460309L1385.830466000421 437.2636225291031Q1385.830466000421 426.2485516567853 1379.8464234742119 419.64394175748816Q1373.8623809480032 413.0171687377236 1363.9776292195247 413.0171687377236ZM1433.3925225235475 486.57656556915754L1420.626565134302 486.57656556915754L1420.626565134302 404.24057303261725L1433.3925225235475 404.24057303261725L1433.3925225235475 417.64926091541855L1434.0352530171035 417.64926091541855Q1437.0494374006753 410.62355172724 1442.5680543970675 406.4790481998287Q1448.064508272993 402.3123815519499 1457.3286926283831 402.3123815519499L1457.3286926283831 402.3123815519499Q1470.0946500176283 402.3123815519499 1477.5192953742212 410.53489924537024Q1484.921777610346 418.7574169387905 1484.921777610346 433.76184949524753L1484.921777610346 433.76184949524753L1484.921777610346 486.57656556915754L1472.1558202211004 486.57656556915754L1472.1558202211004 436.00032466245904Q1472.1558202211004 413.8150410745514 1453.4944727875159 413.8150410745514L1453.4944727875159 413.8150410745514Q1449.6602529466486 413.8150410745514 1446.0698274309234 414.7680552546513Q1442.4794019151982 415.72106943475126 1439.6203593748983 417.64926091541855Q1436.7391537141311 419.5552892756184 1435.0547565586057 422.5029842977879Q1433.3925225235475 425.4506793199575 1433.3925225235475 429.4400410040967L1433.3925225235475 429.4400410040967L1433.3925225235475 486.57656556915754ZM1545.4049333659905 486.57656556915754L1529.4474866294336 486.57656556915754Q1522.7542242482664 486.57656556915754 1519.3189405758135 482.83099821016015Q1515.8836569033601 479.08543085116276 1515.8836569033601 473.01273584308416L1515.8836569033601 473.01273584308416L1515.8836569033601 415.4107857482071L1502.3198271772867 415.4107857482071L1502.3198271772867 404.24057303261725L1509.9882668590208 404.24057303261725Q1514.1327703864322 404.24057303261725 1515.639862578218 402.5561758770918Q1517.1691178904716 400.89394184203377 1517.1691178904716 396.727275194155L1517.1691178904716 396.727275194155L1517.1691178904716 381.4125589511538L1528.6496142926053 381.4125589511538L1528.6496142926053 404.24057303261725L1546.690394353102 404.24057303261725L1546.690394353102 415.4107857482071L1528.6496142926053 415.4107857482071L1528.6496142926053 475.4063528535677L1545.4049333659905 475.4063528535677L1545.4049333659905 486.57656556915754ZM1618.0113160173246 486.57656556915754L1618.0113160173246 473.16787768635623L1617.3685855237686 473.16787768635623Q1616.1052876571243 476.0490833471235 1614.265748658327 478.8416365260209Q1612.4262096595294 481.6341897049184 1609.7223089625018 483.7840123902601Q1606.9962451450065 485.9338350756018 1603.1841884246069 487.21929606271334Q1599.3499685837396 488.4825939293574 1594.2302877557609 488.4825939293574L1594.2302877557609 488.4825939293574Q1581.4643303665157 488.4825939293574 1573.9731956485207 480.28223935640455Q1566.4820609305261 472.0597216629842 1566.4820609305261 457.0552891065272L1566.4820609305261 457.0552891065272L1566.4820609305261 404.24057303261725L1579.2480183197713 404.24057303261725L1579.2480183197713 454.81681393931575Q1579.2480183197713 477.0020975272234 1598.0645075966281 477.0020975272234L1598.0645075966281 477.0020975272234Q1601.8987274374954 477.0020975272234 1605.4891529532206 476.0490833471235Q1609.0795784689462 475.09606916702353 1611.8721316478436 473.16787768635623Q1614.664684826741 471.2618493261564 1616.3490819822664 468.3141543039868Q1618.0113160173246 465.34429616134986 1618.0113160173246 461.19979263393856L1618.0113160173246 461.19979263393856L1618.0113160173246 404.24057303261725L1630.7772734065697 404.24057303261725L1630.7772734065697 486.57656556915754L1618.0113160173246 486.57656556915754ZM1670.6708902479622 486.57656556915754L1657.9049328587166 486.57656556915754L1657.9049328587166 404.24057303261725L1670.6708902479622 404.24057303261725L1670.6708902479622 419.40014743234633L1671.46876258479 419.40014743234633Q1673.7072377520017 413.4825942675398 1679.4474859530687 408.8726652103122Q1685.1877341541358 404.24057303261725 1695.2497908463533 404.24057303261725L1695.2497908463533 404.24057303261725L1700.1921667105926 404.24057303261725L1700.1921667105926 417.0065304218628L1692.701031992598 417.0065304218628Q1682.3286916138359 417.0065304218628 1676.499790930899 420.9072396241323Q1670.6708902479622 424.8301119468692 1670.6708902479622 430.72550199120826L1670.6708902479622 430.72550199120826L1670.6708902479622 486.57656556915754ZM1746.62390408988 488.4825939293574L1746.62390408988 488.4825939293574Q1738.1797551917853 488.4825939293574 1731.3978403287488 485.4684095457855Q1724.6159254657118 482.43206204174624 1719.7400389628751 476.75830320208155Q1714.8863155805057 471.10670748288425 1712.2489042448801 463.1944734760081Q1709.6114929092546 455.3044025895994 1709.6114929092546 445.3974877406537L1709.6114929092546 445.3974877406537Q1709.6114929092546 435.66787785544744 1712.2489042448801 427.68915448716893Q1714.8863155805057 419.7104311188905 1719.7400389628751 414.05883539969324Q1724.6159254657118 408.38507656002855 1731.3978403287488 405.3487290559892Q1738.1797551917853 402.3123815519499 1746.62390408988 402.3123815519499L1746.62390408988 402.3123815519499Q1754.93507426517 402.3123815519499 1761.4731948030649 405.3487290559892Q1768.0113153409598 408.38507656002855 1772.6434075186548 413.72638859268164Q1777.27549969635 419.06770062533474 1779.7356060682355 426.4258566205249Q1782.2178755605887 433.76184949524753 1782.2178755605887 442.53844520035386L1782.2178755605887 442.53844520035386L1782.2178755605887 448.588977087965L1723.0201807920562 448.588977087965L1723.0201807920562 452.4231969288322Q1723.0201807920562 457.698019600083 1724.682414827114 462.2414592959082Q1726.3668119826398 466.7848989917334 1729.4696488480813 470.1315301823169Q1732.5946488339905 473.5003244933678 1737.1380885298154 475.4063528535677Q1741.6815282256407 477.31238121376754 1747.4217764267078 477.31238121376754L1747.4217764267078 477.31238121376754Q1755.2453579517141 477.31238121376754 1761.074258634651 473.6554663366399Q1766.9031593175878 469.97638833904483 1770.094648664899 463.1279841146058L1770.094648664899 463.1279841146058L1779.1815280565497 469.6661046525007Q1775.1921663724102 478.11025355059536 1766.7480174743155 483.29642373997643Q1758.2817054557536 488.4825939293574 1746.62390408988 488.4825939293574ZM1746.62390408988 413.0171687377236L1746.62390408988 413.0171687377236Q1741.3712445390966 413.0171687377236 1737.0494360479456 414.85670773652106Q1732.7497906772624 416.67408361485116 1729.6469538118208 420.0428779259021Q1726.5219538259116 423.38950911648556 1724.7710673089841 427.93294881231077Q1723.0201807920562 432.47638850813604 1723.0201807920562 437.9063530226589L1723.0201807920562 437.9063530226589L1723.0201807920562 439.0145090460309L1768.4989039912434 439.0145090460309L1768.4989039912434 437.2636225291031Q1768.4989039912434 426.2485516567853 1762.5148614650343 419.64394175748816Q1756.5308189388256 413.0171687377236 1746.62390408988 413.0171687377236Z " fill="#ffffff" transform="matrix(0.4909612653569324,0,0,0.4909612653569323,0,82.26286713939801)"/></g></svg>